<svg width="20" height="20" viewBox="0 0 20 20" fill="none" xmlns="http://www.w3.org/2000/svg">
<path d="M4.44444 8.66666V4.44444H2.22222V5.55555C2.22222 6.25925 2.42593 6.8937 2.83333 7.45888C3.24074 8.02407 3.77778 8.42666 4.44444 8.66666ZM15.5556 8.66666C16.2222 8.42592 16.7593 8.02296 17.1667 7.45777C17.5741 6.89259 17.7778 6.25851 17.7778 5.55555V4.44444H15.5556V8.66666ZM8.88889 17.7778V14.3333C7.98148 14.1296 7.17148 13.7455 6.45889 13.1811C5.7463 12.6167 5.22296 11.9081 4.88889 11.0555C3.5 10.8889 2.33815 10.2826 1.40333 9.23666C0.468519 8.19073 0.000740741 6.9637 0 5.55555V4.44444C0 3.83333 0.217778 3.31037 0.653333 2.87555C1.08889 2.44074 1.61185 2.22296 2.22222 2.22222H4.44444C4.44444 1.61111 4.66222 1.08815 5.09778 0.653333C5.53333 0.218518 6.0563 0.00074074 6.66667 0H13.3333C13.9444 0 14.4678 0.217778 14.9033 0.653333C15.3389 1.08889 15.5563 1.61185 15.5556 2.22222H17.7778C18.3889 2.22222 18.9122 2.44 19.3478 2.87555C19.7833 3.31111 20.0007 3.83407 20 4.44444V5.55555C20 6.96296 19.5322 8.18999 18.5967 9.23666C17.6611 10.2833 16.4993 10.8896 15.1111 11.0555C14.7778 11.9074 14.2548 12.6159 13.5422 13.1811C12.8296 13.7463 12.0193 14.1304 11.1111 14.3333V17.7778H14.4444C14.7593 17.7778 15.0233 17.8844 15.2367 18.0978C15.45 18.3111 15.5563 18.5748 15.5556 18.8889C15.5548 19.2029 15.4481 19.467 15.2356 19.6811C15.023 19.8952 14.7593 20.0015 14.4444 20H5.55556C5.24074 20 4.97704 19.8933 4.76444 19.68C4.55185 19.4667 4.44518 19.2029 4.44444 18.8889C4.4437 18.5748 4.55037 18.3111 4.76444 18.0978C4.97852 17.8844 5.24222 17.7778 5.55556 17.7778H8.88889Z" fill="#1A1A1A"/>
</svg>
