<svg width="28" height="28" viewBox="0 0 28 28" fill="none" xmlns="http://www.w3.org/2000/svg">
<path d="M14 3.50342C13.5408 3.50342 13.0862 3.59386 12.6619 3.76957C12.2377 3.94529 11.8523 4.20284 11.5276 4.52752C11.2029 4.8522 10.9454 5.23765 10.7697 5.66187C10.5939 6.08608 10.5035 6.54075 10.5035 6.99992C10.5035 7.45908 10.5939 7.91376 10.7697 8.33797C10.9454 8.76219 11.2029 9.14764 11.5276 9.47232C11.8523 9.797 12.2377 10.0545 12.6619 10.2303C13.0862 10.406 13.5408 10.4964 14 10.4964C14.9273 10.4964 15.8167 10.128 16.4724 9.47232C17.1281 8.8166 17.4965 7.92725 17.4965 6.99992C17.4965 6.07259 17.1281 5.18324 16.4724 4.52752C15.8167 3.8718 14.9273 3.50342 14 3.50342ZM21.875 5.24992C21.1788 5.24992 20.5111 5.52648 20.0188 6.01876C19.5266 6.51105 19.25 7.17872 19.25 7.87492C19.25 8.57111 19.5266 9.23879 20.0188 9.73107C20.5111 10.2234 21.1788 10.4999 21.875 10.4999C22.5712 10.4999 23.2389 10.2234 23.7312 9.73107C24.2234 9.23879 24.5 8.57111 24.5 7.87492C24.5 7.17872 24.2234 6.51105 23.7312 6.01876C23.2389 5.52648 22.5712 5.24992 21.875 5.24992ZM6.125 5.24992C5.42881 5.24992 4.76113 5.52648 4.26885 6.01876C3.77656 6.51105 3.5 7.17872 3.5 7.87492C3.5 8.57111 3.77656 9.23879 4.26885 9.73107C4.76113 10.2234 5.42881 10.4999 6.125 10.4999C6.82119 10.4999 7.48887 10.2234 7.98116 9.73107C8.47344 9.23879 8.75 8.57111 8.75 7.87492C8.75 7.17872 8.47344 6.51105 7.98116 6.01876C7.48887 5.52648 6.82119 5.24992 6.125 5.24992ZM8.75 13.9877C8.75323 13.5257 8.93904 13.0837 9.26687 12.7581C9.59471 12.4326 10.038 12.2499 10.5 12.2499H17.5C17.9641 12.2499 18.4092 12.4343 18.7374 12.7625C19.0656 13.0907 19.25 13.5358 19.25 13.9999V19.2499C19.2505 19.8007 19.1642 20.3482 18.9945 20.8722C18.607 22.0599 17.8088 23.0706 16.7432 23.7227C15.6775 24.3749 14.4143 24.6258 13.1803 24.4304C11.9464 24.235 10.8225 23.6061 10.0105 22.6566C9.19849 21.7071 8.75158 20.4993 8.75 19.2499V13.9877ZM7 13.9999C7 13.3612 7.16975 12.7644 7.469 12.2499H3.5C3.03587 12.2499 2.59075 12.4343 2.26256 12.7625C1.93437 13.0907 1.75 13.5358 1.75 13.9999V18.3749C1.74976 19.0912 1.9254 19.7966 2.26148 20.4291C2.59756 21.0617 3.08381 21.602 3.67752 22.0027C4.27124 22.4034 4.95426 22.6522 5.6666 22.7273C6.37894 22.8023 7.09881 22.7013 7.763 22.4332C7.26039 21.4468 6.9989 20.3552 7 19.2482V13.9999ZM21 13.9999V19.2499C21 20.3962 20.7253 21.4777 20.237 22.4332C20.9012 22.7013 21.6211 22.8023 22.3334 22.7273C23.0457 22.6522 23.7288 22.4034 24.3225 22.0027C24.9162 21.602 25.4024 21.0617 25.7385 20.4291C26.0746 19.7966 26.2502 19.0912 26.25 18.3749V13.9999C26.25 13.5358 26.0656 13.0907 25.7374 12.7625C25.4092 12.4343 24.9641 12.2499 24.5 12.2499H20.531C20.8285 12.7644 21 13.3612 21 13.9999Z" fill="white"/>
</svg>
