<svg width="21" height="22" viewBox="0 0 21 22" fill="none" xmlns="http://www.w3.org/2000/svg">
<path d="M0.875 20.125V8.17346C0.875 7.82146 0.953833 7.48825 1.1115 7.17383C1.26917 6.85942 1.48642 6.60046 1.76325 6.39696L9.16763 0.789707C9.55538 0.493623 9.99813 0.345581 10.4959 0.345581C10.9936 0.345581 11.4391 0.493623 11.8324 0.789707L19.2367 6.39558C19.5145 6.59908 19.7317 6.8585 19.8885 7.17383C20.0462 7.48825 20.125 7.82146 20.125 8.17346V20.125C20.125 20.4935 19.988 20.8147 19.7139 21.0888C19.4398 21.3629 19.1185 21.5 18.75 21.5H14.097C13.7817 21.5 13.5177 21.3936 13.305 21.181C13.0923 20.9674 12.986 20.7034 12.986 20.389V13.8316C12.986 13.5172 12.8797 13.2536 12.667 13.041C12.4534 12.8274 12.1894 12.7206 11.875 12.7206H9.125C8.81058 12.7206 8.54704 12.8274 8.33438 13.041C8.12079 13.2536 8.014 13.5172 8.014 13.8316V20.3903C8.014 20.7048 7.90767 20.9683 7.695 21.181C7.48233 21.3936 7.21879 21.5 6.90438 21.5H2.25C1.8815 21.5 1.56021 21.3629 1.28612 21.0888C1.01204 20.8147 0.875 20.4935 0.875 20.125Z" fill="#1A1A1A"/>
</svg>
