<svg width="33" height="33" viewBox="0 0 33 33" fill="none" xmlns="http://www.w3.org/2000/svg">
<path d="M6.875 26.125V14.1735C6.875 13.8215 6.95383 13.4883 7.1115 13.1739C7.26917 12.8595 7.48642 12.6005 7.76325 12.397L15.1676 6.78975C15.5554 6.49367 15.9981 6.34563 16.4959 6.34563C16.9936 6.34563 17.4391 6.49367 17.8324 6.78975L25.2367 12.3956C25.5145 12.5991 25.7317 12.8585 25.8885 13.1739C26.0462 13.4883 26.125 13.8215 26.125 14.1735V26.125C26.125 26.4935 25.988 26.8148 25.7139 27.0889C25.4398 27.363 25.1185 27.5 24.75 27.5H20.097C19.7817 27.5 19.5177 27.3937 19.305 27.181C19.0923 26.9674 18.986 26.7034 18.986 26.389V19.8316C18.986 19.5172 18.8797 19.2537 18.667 19.041C18.4534 18.8274 18.1894 18.7206 17.875 18.7206H15.125C14.8106 18.7206 14.547 18.8274 14.3344 19.041C14.1208 19.2537 14.014 19.5172 14.014 19.8316V26.3904C14.014 26.7048 13.9077 26.9683 13.695 27.181C13.4823 27.3937 13.2188 27.5 12.9044 27.5H8.25C7.8815 27.5 7.56021 27.363 7.28612 27.0889C7.01204 26.8148 6.875 26.4935 6.875 26.125Z" fill="white"/>
</svg>
