<svg width="17" height="17" viewBox="0 0 17 17" fill="none" xmlns="http://www.w3.org/2000/svg">
<path fill-rule="evenodd" clip-rule="evenodd" d="M9.00026 11.1258C8.86743 11.2586 8.68729 11.3332 8.49947 11.3332C8.31165 11.3332 8.13151 11.2586 7.99868 11.1258L3.99164 7.11875C3.92398 7.05341 3.87002 6.97525 3.8329 6.88883C3.79577 6.80241 3.77623 6.70947 3.77542 6.61541C3.7746 6.52136 3.79252 6.42809 3.82814 6.34104C3.86375 6.25399 3.91635 6.1749 3.98286 6.10839C4.04936 6.04188 4.12845 5.98929 4.2155 5.95367C4.30255 5.91806 4.39583 5.90013 4.48988 5.90095C4.58393 5.90177 4.67688 5.92131 4.7633 5.95843C4.84972 5.99556 4.92788 6.04952 4.99322 6.11717L8.49947 9.62342L12.0057 6.11717C12.1393 5.98814 12.3182 5.91675 12.504 5.91836C12.6897 5.91997 12.8673 5.99447 12.9987 6.1258C13.13 6.25713 13.2045 6.43479 13.2061 6.62051C13.2077 6.80623 13.1363 6.98516 13.0073 7.11875L9.00026 11.1258Z" fill="#757575"/>
</svg>
