<svg width="16" height="16" viewBox="0 0 16 16" fill="none" xmlns="http://www.w3.org/2000/svg">
<path d="M8 2H3.33333C2.97971 2 2.64057 2.14048 2.39052 2.39052C2.14048 2.64057 2 2.97971 2 3.33333V12.6667C2 13.0203 2.14048 13.3594 2.39052 13.6095C2.64057 13.8595 2.97971 14 3.33333 14H12.6667C13.0203 14 13.3594 13.8595 13.6095 13.6095C13.8595 13.3594 14 13.0203 14 12.6667V8" stroke="#EAB044" stroke-width="2" stroke-linecap="round" stroke-linejoin="round"/>
<path d="M12.2494 1.75C12.5146 1.48478 12.8743 1.33578 13.2494 1.33578C13.6245 1.33578 13.9842 1.48478 14.2494 1.75C14.5146 2.01521 14.6636 2.37493 14.6636 2.75C14.6636 3.12507 14.5146 3.48478 14.2494 3.75L8.24075 9.75933C8.08244 9.9175 7.88688 10.0333 7.67208 10.096L5.75674 10.656C5.69938 10.6727 5.63857 10.6737 5.58068 10.6589C5.5228 10.6441 5.46996 10.614 5.42771 10.5717C5.38546 10.5294 5.35534 10.4766 5.34051 10.4187C5.32568 10.3608 5.32668 10.3 5.34341 10.2427L5.90341 8.32733C5.96643 8.1127 6.08243 7.91737 6.24075 7.75933L12.2494 1.75Z" stroke="#EAB044" stroke-width="2" stroke-linecap="round" stroke-linejoin="round"/>
</svg>
