<svg width="21" height="21" viewBox="0 0 21 21" fill="none" xmlns="http://www.w3.org/2000/svg">
<path d="M12.85 10.0734L5.58594 8.79375V18.2497C5.58585 18.3524 5.60605 18.4542 5.64538 18.5492C5.68471 18.6441 5.7424 18.7304 5.81513 18.803C5.88787 18.8756 5.97422 18.9331 6.06924 18.9723C6.16425 19.0115 6.26607 19.0315 6.36884 19.0312H18.9032C19.0061 19.0317 19.1081 19.0118 19.2032 18.9727C19.2984 18.9336 19.3849 18.8761 19.4578 18.8035C19.5307 18.7308 19.5885 18.6445 19.6279 18.5495C19.6673 18.4544 19.6875 18.3525 19.6874 18.2497V14.7656L12.85 10.0734Z" fill="#185C37"/>
<path d="M12.85 1.96875H6.36884C6.26607 1.96849 6.16425 1.98852 6.06924 2.02769C5.97422 2.06686 5.88787 2.1244 5.81513 2.19702C5.7424 2.26963 5.68471 2.35588 5.64538 2.45084C5.60605 2.54579 5.58585 2.64757 5.58594 2.75034V6.23438L12.85 10.5L16.6962 11.7797L19.6874 10.5V6.23438L12.85 1.96875Z" fill="#21A366"/>
<path d="M5.58594 6.23438H12.85V10.5H5.58594V6.23438Z" fill="#107C41"/>
<path opacity="0.1" d="M10.7847 5.38125H5.58594V16.0453H10.7847C10.9919 16.0443 11.1903 15.9617 11.337 15.8154C11.4836 15.6691 11.5668 15.4709 11.5683 15.2637V6.16284C11.5668 5.95569 11.4836 5.75749 11.337 5.61119C11.1903 5.4649 10.9919 5.38228 10.7847 5.38125Z" fill="black"/>
<path opacity="0.2" d="M10.3575 5.80781H5.58594V16.4719H10.3575C10.5647 16.4708 10.7631 16.3882 10.9098 16.2419C11.0564 16.0956 11.1395 15.8974 11.1411 15.6903V6.58941C11.1395 6.38225 11.0564 6.18406 10.9098 6.03776C10.7631 5.89146 10.5647 5.80884 10.3575 5.80781Z" fill="black"/>
<path opacity="0.2" d="M10.3575 5.80781H5.58594V15.6188H10.3575C10.5647 15.6177 10.7631 15.5351 10.9098 15.3888C11.0564 15.2425 11.1395 15.0443 11.1411 14.8372V6.58941C11.1395 6.38225 11.0564 6.18406 10.9098 6.03776C10.7631 5.89146 10.5647 5.80884 10.3575 5.80781Z" fill="black"/>
<path opacity="0.2" d="M9.93031 5.80781H5.58594V15.6188H9.93031C10.1375 15.6177 10.3359 15.5351 10.4825 15.3888C10.6292 15.2425 10.7123 15.0443 10.7139 14.8372V6.58941C10.7123 6.38225 10.6292 6.18406 10.4825 6.03776C10.3359 5.89146 10.1375 5.80884 9.93031 5.80781Z" fill="black"/>
<path d="M2.09606 5.80781H9.93037C10.1379 5.80764 10.337 5.88987 10.4839 6.03642C10.6309 6.18298 10.7136 6.38188 10.7139 6.58941V14.4106C10.7136 14.6181 10.6309 14.817 10.4839 14.9636C10.337 15.1101 10.1379 15.1924 9.93037 15.1922H2.09606C1.99323 15.1925 1.89135 15.1726 1.79625 15.1334C1.70116 15.0943 1.61473 15.0368 1.54193 14.9642C1.46912 14.8915 1.41138 14.8053 1.37201 14.7103C1.33264 14.6153 1.31241 14.5134 1.3125 14.4106V6.58941C1.31241 6.48658 1.33264 6.38474 1.37201 6.28975C1.41138 6.19475 1.46912 6.10847 1.54193 6.03585C1.61473 5.96322 1.70116 5.9057 1.79625 5.86657C1.89135 5.82743 1.99323 5.80747 2.09606 5.80781Z" fill="url(#paint0_linear_235_379)"/>
<path d="M3.74023 13.0417L5.38808 10.4928L3.8787 7.95834H5.0908L5.91439 9.58125C5.99052 9.73481 6.04564 9.849 6.07058 9.92513H6.08173C6.13555 9.80219 6.19242 9.68275 6.25236 9.56681L7.13305 7.96097H8.24867L6.70058 10.481L8.28805 13.0436H7.10089L6.14933 11.2645C6.10527 11.188 6.06773 11.1078 6.03711 11.025H6.02136C5.99355 11.1057 5.95656 11.183 5.91111 11.2553L4.93133 13.0417H3.74023Z" fill="white"/>
<path d="M18.9035 1.96875H12.8496V6.23437H19.6871V2.75034C19.6872 2.64751 19.6669 2.54568 19.6276 2.45068C19.5882 2.35569 19.5305 2.2694 19.4577 2.19678C19.3848 2.12416 19.2984 2.06663 19.2033 2.0275C19.1082 1.98837 19.0063 1.9684 18.9035 1.96875Z" fill="#33C481"/>
<path d="M12.8496 10.5H19.6871V14.7656H12.8496V10.5Z" fill="#107C41"/>
<defs>
<linearGradient id="paint0_linear_235_379" x1="2.94919" y1="5.19356" x2="9.07725" y2="15.8064" gradientUnits="userSpaceOnUse">
<stop stop-color="#18884F"/>
<stop offset="0.5" stop-color="#117E43"/>
<stop offset="1" stop-color="#0B6631"/>
</linearGradient>
</defs>
</svg>
