<svg width="21" height="21" viewBox="0 0 21 21" fill="none" xmlns="http://www.w3.org/2000/svg">
<path d="M21 10.5C21 4.70105 16.299 0 10.5 0C4.70105 0 0 4.70105 0 10.5C0 15.7408 3.83972 20.0848 8.85938 20.8724V13.5352H6.19336V10.5H8.85938V8.18672C8.85938 5.55516 10.427 4.10156 12.8254 4.10156C13.9742 4.10156 15.1758 4.30664 15.1758 4.30664V6.89062H13.8518C12.5474 6.89062 12.1406 7.70003 12.1406 8.53043V10.5H15.0527L14.5872 13.5352H12.1406V20.8724C17.1603 20.0848 21 15.7409 21 10.5Z" fill="black"/>
<path d="M14.5872 13.5352L15.0527 10.5H12.1406V8.53043C12.1406 7.69995 12.5474 6.89062 13.8518 6.89062H15.1758V4.30664C15.1758 4.30664 13.9742 4.10156 12.8253 4.10156C10.427 4.10156 8.85938 5.55516 8.85938 8.18672V10.5H6.19336V13.5352H8.85938V20.8724C9.40211 20.9575 9.95064 21.0001 10.5 21C11.0494 21.0001 11.5979 20.9575 12.1406 20.8724V13.5352H14.5872Z" fill="white"/>
</svg>
