<svg width="34" height="34" viewBox="0 0 34 34" fill="none" xmlns="http://www.w3.org/2000/svg">
<rect width="34" height="34" rx="2" fill="#0165E1"/>
<path d="M17 5C10.4 5 5 10.4096 5 17.0723C5 23.0964 9.39199 28.0964 15.128 29V20.5663H12.08V17.0723H15.128V14.4096C15.128 11.3855 16.916 9.72289 19.664 9.72289C20.972 9.72289 22.34 9.95181 22.34 9.95181V12.9277H20.828C19.34 12.9277 18.872 13.8554 18.872 14.8072V17.0723H22.208L21.668 20.5663H18.872V29C21.6997 28.5516 24.2746 27.103 26.1319 24.9157C27.9892 22.7284 29.0064 19.9466 29 17.0723C29 10.4096 23.6 5 17 5Z" fill="#F8F8F8"/>
</svg>
