<svg width="20" height="14" viewBox="0 0 20 14" fill="none" xmlns="http://www.w3.org/2000/svg">
<path d="M19 7C19 8.2 14.97 13 10 13C5.03 13 1 8.2 1 7C1 5.8 5.03 1 10 1C14.97 1 19 5.8 19 7Z" stroke="black" stroke-width="2"/>
<path d="M13 7C13 7.79565 12.6839 8.55871 12.1213 9.12132C11.5587 9.68393 10.7956 10 10 10C9.20435 10 8.44129 9.68393 7.87868 9.12132C7.31607 8.55871 7 7.79565 7 7C7 6.20435 7.31607 5.44129 7.87868 4.87868C8.44129 4.31607 9.20435 4 10 4C10.7956 4 11.5587 4.31607 12.1213 4.87868C12.6839 5.44129 13 6.20435 13 7Z" stroke="black" stroke-width="2"/>
</svg>
