<svg width="34" height="34" viewBox="0 0 34 34" fill="none" xmlns="http://www.w3.org/2000/svg">
<rect width="34" height="34" rx="2" fill="#7800A0"/>
<path d="M11.0499 2.83325H22.9499C27.4833 2.83325 31.1666 6.51659 31.1666 11.0499V22.9499C31.1666 25.1291 30.3009 27.2191 28.76 28.76C27.2191 30.3009 25.1291 31.1666 22.9499 31.1666H11.0499C6.51659 31.1666 2.83325 27.4833 2.83325 22.9499V11.0499C2.83325 8.87072 3.69893 6.78078 5.23986 5.23986C6.78078 3.69893 8.87072 2.83325 11.0499 2.83325ZM10.7666 5.66659C9.41398 5.66659 8.11678 6.20391 7.16034 7.16034C6.20391 8.11678 5.66659 9.41398 5.66659 10.7666V23.2333C5.66659 26.0524 7.94742 28.3333 10.7666 28.3333H23.2333C24.5859 28.3333 25.8831 27.7959 26.8395 26.8395C27.7959 25.8831 28.3333 24.5859 28.3333 23.2333V10.7666C28.3333 7.94742 26.0524 5.66659 23.2333 5.66659H10.7666ZM24.4374 7.79159C24.9071 7.79159 25.3575 7.97815 25.6896 8.31025C26.0217 8.64235 26.2083 9.09276 26.2083 9.56242C26.2083 10.0321 26.0217 10.4825 25.6896 10.8146C25.3575 11.1467 24.9071 11.3333 24.4374 11.3333C23.9678 11.3333 23.5173 11.1467 23.1853 10.8146C22.8532 10.4825 22.6666 10.0321 22.6666 9.56242C22.6666 9.09276 22.8532 8.64235 23.1853 8.31025C23.5173 7.97815 23.9678 7.79159 24.4374 7.79159ZM16.9999 9.91659C18.8785 9.91659 20.6802 10.6629 22.0086 11.9912C23.337 13.3196 24.0833 15.1213 24.0833 16.9999C24.0833 18.8785 23.337 20.6802 22.0086 22.0086C20.6802 23.337 18.8785 24.0833 16.9999 24.0833C15.1213 24.0833 13.3196 23.337 11.9912 22.0086C10.6629 20.6802 9.91659 18.8785 9.91659 16.9999C9.91659 15.1213 10.6629 13.3196 11.9912 11.9912C13.3196 10.6629 15.1213 9.91659 16.9999 9.91659ZM16.9999 12.7499C15.8727 12.7499 14.7917 13.1977 13.9947 13.9947C13.1977 14.7917 12.7499 15.8727 12.7499 16.9999C12.7499 18.1271 13.1977 19.2081 13.9947 20.0051C14.7917 20.8022 15.8727 21.2499 16.9999 21.2499C18.1271 21.2499 19.2081 20.8022 20.0051 20.0051C20.8022 19.2081 21.2499 18.1271 21.2499 16.9999C21.2499 15.8727 20.8022 14.7917 20.0051 13.9947C19.2081 13.1977 18.1271 12.7499 16.9999 12.7499Z" fill="white"/>
</svg>
