<svg width="35" height="35" viewBox="0 0 35 35" fill="none" xmlns="http://www.w3.org/2000/svg">
<path d="M13.5771 9.78534C13.4419 9.92025 13.3347 10.0805 13.2615 10.2569C13.1883 10.4333 13.1506 10.6225 13.1506 10.8135C13.1506 11.0045 13.1883 11.1936 13.2615 11.37C13.3347 11.5464 13.4419 11.7067 13.5771 11.8416L19.2354 17.4999L13.5771 23.1583C13.3044 23.4309 13.1513 23.8008 13.1513 24.1864C13.1513 24.572 13.3044 24.9418 13.5771 25.2145C13.8498 25.4872 14.2196 25.6404 14.6052 25.6404C14.9909 25.6404 15.3607 25.4872 15.6334 25.2145L22.3271 18.5208C22.4623 18.3858 22.5696 18.2256 22.6427 18.0492C22.7159 17.8727 22.7536 17.6836 22.7536 17.4926C22.7536 17.3016 22.7159 17.1125 22.6427 16.9361C22.5696 16.7597 22.4623 16.5994 22.3271 16.4645L15.6334 9.77075C15.0792 9.21659 14.1459 9.21659 13.5771 9.78534Z" fill="#EAB044"/>
</svg>
