<svg width="24" height="24" viewBox="0 0 24 24" fill="none" xmlns="http://www.w3.org/2000/svg">
<path d="M14.69 6.71002C14.7827 6.80254 14.8562 6.91242 14.9064 7.0334C14.9566 7.15437 14.9824 7.28405 14.9824 7.41502C14.9824 7.54599 14.9566 7.67567 14.9064 7.79665C14.8562 7.91762 14.7827 8.02751 14.69 8.12002L10.81 12L14.69 15.88C14.877 16.067 14.982 16.3206 14.982 16.585C14.982 16.8494 14.877 17.103 14.69 17.29C14.503 17.477 14.2494 17.582 13.985 17.582C13.7206 17.582 13.467 17.477 13.28 17.29L8.68998 12.7C8.59727 12.6075 8.52373 12.4976 8.47355 12.3766C8.42336 12.2557 8.39753 12.126 8.39753 11.995C8.39753 11.8641 8.42336 11.7344 8.47355 11.6134C8.52373 11.4924 8.59727 11.3825 8.68998 11.29L13.28 6.70002C13.66 6.32002 14.3 6.32002 14.69 6.71002Z" fill="#757575"/>
</svg>
