<svg width="35" height="35" viewBox="0 0 35 35" fill="none" xmlns="http://www.w3.org/2000/svg">
<path d="M21.4229 9.78534C21.5581 9.92025 21.6653 10.0805 21.7385 10.2569C21.8117 10.4333 21.8494 10.6225 21.8494 10.8135C21.8494 11.0045 21.8117 11.1936 21.7385 11.37C21.6653 11.5464 21.5581 11.7067 21.4229 11.8416L15.7646 17.4999L21.4229 23.1583C21.6956 23.4309 21.8487 23.8008 21.8487 24.1864C21.8487 24.572 21.6956 24.9418 21.4229 25.2145C21.1502 25.4872 20.7804 25.6404 20.3948 25.6404C20.0091 25.6404 19.6393 25.4872 19.3666 25.2145L12.6729 18.5208C12.5377 18.3858 12.4304 18.2256 12.3573 18.0492C12.2841 17.8727 12.2464 17.6836 12.2464 17.4926C12.2464 17.3016 12.2841 17.1125 12.3573 16.9361C12.4304 16.7597 12.5377 16.5994 12.6729 16.4645L19.3666 9.77075C19.9208 9.21659 20.8541 9.21659 21.4229 9.78534Z" fill="#EAB044"/>
</svg>
