<svg width="26" height="26" viewBox="0 0 26 26" fill="none" xmlns="http://www.w3.org/2000/svg">
<path d="M2.16602 2.16675V4.33341H7.58268V8.66675H2.16602V10.8334H7.58268C8.78518 10.8334 9.74935 9.86925 9.74935 8.66675V7.58342H15.166V18.4167H9.74935V17.3334C9.74935 16.1309 8.78518 15.1667 7.58268 15.1667H2.16602V17.3334H7.58268V21.6667H2.16602V23.8334H7.58268C8.78518 23.8334 9.74935 22.8692 9.74935 21.6667V20.5834H15.166C16.3685 20.5834 17.3327 19.6192 17.3327 18.4167V14.0834H23.8327V11.9167H17.3327V7.58342C17.3327 6.38091 16.3685 5.41675 15.166 5.41675H9.74935V4.33341C9.74935 3.13091 8.78518 2.16675 7.58268 2.16675H2.16602Z" fill="#1A1A1A"/>
</svg>
