<svg width="26" height="26" viewBox="0 0 26 26" fill="none" xmlns="http://www.w3.org/2000/svg">
<path d="M2.16602 2.16667V4.33334H7.58268V8.66667H2.16602V10.8333H7.58268C8.78518 10.8333 9.74935 9.86917 9.74935 8.66667V7.58334H15.166V18.4167H9.74935V17.3333C9.74935 16.1308 8.78518 15.1667 7.58268 15.1667H2.16602V17.3333H7.58268V21.6667H2.16602V23.8333H7.58268C8.78518 23.8333 9.74935 22.8692 9.74935 21.6667V20.5833H15.166C16.3685 20.5833 17.3327 19.6192 17.3327 18.4167V14.0833H23.8327V11.9167H17.3327V7.58334C17.3327 6.38084 16.3685 5.41667 15.166 5.41667H9.74935V4.33334C9.74935 3.13084 8.78518 2.16667 7.58268 2.16667H2.16602Z" fill="white"/>
</svg>
