<svg width="20" height="25" viewBox="0 0 20 25" fill="none" xmlns="http://www.w3.org/2000/svg">
<path d="M19.8787 8.2325C19.8194 8.09687 19.7365 7.97286 19.6338 7.86625L12.1337 0.36625C12.0271 0.26354 11.9031 0.180584 11.7675 0.12125C11.73 0.10375 11.69 0.0937499 11.65 0.0799999C11.5454 0.0445371 11.4365 0.0231005 11.3263 0.01625C11.3 0.01375 11.2762 0 11.25 0H2.5C1.12125 0 0 1.12125 0 2.5V22.5C0 23.8787 1.12125 25 2.5 25H17.5C18.8787 25 20 23.8787 20 22.5V8.75C20 8.72375 19.9862 8.7 19.9837 8.6725C19.9769 8.56224 19.9555 8.45338 19.92 8.34875C19.9083 8.30875 19.8946 8.27 19.8787 8.2325ZM15.7325 7.5H12.5V4.2675L15.7325 7.5ZM2.5 22.5V2.5H10V8.75C10 9.08152 10.1317 9.39946 10.3661 9.63388C10.6005 9.8683 10.9185 10 11.25 10H17.5L17.5025 22.5H2.5Z" fill="white"/>
<path d="M5 12.5H15V15H5V12.5ZM5 17.5H15V20H5V17.5ZM5 7.5H7.5V10H5V7.5Z" fill="white"/>
</svg>
