<svg width="28" height="28" viewBox="0 0 28 28" fill="none" xmlns="http://www.w3.org/2000/svg">
<path d="M14 3.50349C13.5408 3.50349 13.0862 3.59393 12.6619 3.76965C12.2377 3.94536 11.8523 4.20292 11.5276 4.5276C11.2029 4.85228 10.9454 5.23773 10.7697 5.66194C10.5939 6.08616 10.5035 6.54083 10.5035 6.99999C10.5035 7.45916 10.5939 7.91383 10.7697 8.33805C10.9454 8.76226 11.2029 9.14771 11.5276 9.47239C11.8523 9.79707 12.2377 10.0546 12.6619 10.2303C13.0862 10.4061 13.5408 10.4965 14 10.4965C14.9273 10.4965 15.8167 10.1281 16.4724 9.47239C17.1281 8.81667 17.4965 7.92732 17.4965 6.99999C17.4965 6.07266 17.1281 5.18332 16.4724 4.5276C15.8167 3.87187 14.9273 3.50349 14 3.50349ZM21.875 5.24999C21.1788 5.24999 20.5111 5.52656 20.0188 6.01884C19.5266 6.51112 19.25 7.1788 19.25 7.87499C19.25 8.57119 19.5266 9.23887 20.0188 9.73115C20.5111 10.2234 21.1788 10.5 21.875 10.5C22.5712 10.5 23.2389 10.2234 23.7312 9.73115C24.2234 9.23887 24.5 8.57119 24.5 7.87499C24.5 7.1788 24.2234 6.51112 23.7312 6.01884C23.2389 5.52656 22.5712 5.24999 21.875 5.24999ZM6.125 5.24999C5.42881 5.24999 4.76113 5.52656 4.26884 6.01884C3.77656 6.51112 3.5 7.1788 3.5 7.87499C3.5 8.57119 3.77656 9.23887 4.26884 9.73115C4.76113 10.2234 5.42881 10.5 6.125 10.5C6.82119 10.5 7.48887 10.2234 7.98116 9.73115C8.47344 9.23887 8.75 8.57119 8.75 7.87499C8.75 7.1788 8.47344 6.51112 7.98116 6.01884C7.48887 5.52656 6.82119 5.24999 6.125 5.24999ZM8.75 13.9877C8.75323 13.5257 8.93904 13.0838 9.26687 12.7582C9.59471 12.4327 10.038 12.25 10.5 12.25H17.5C17.9641 12.25 18.4092 12.4344 18.7374 12.7626C19.0656 13.0907 19.25 13.5359 19.25 14V19.25C19.2505 19.8008 19.1642 20.3482 18.9945 20.8722C18.607 22.06 17.8088 23.0707 16.7432 23.7228C15.6775 24.375 14.4143 24.6259 13.1803 24.4305C11.9464 24.2351 10.8225 23.6062 10.0105 22.6567C9.19849 21.7072 8.75158 20.4993 8.75 19.25V13.9877ZM7 14C7 13.3612 7.16975 12.7645 7.469 12.25H3.5C3.03587 12.25 2.59075 12.4344 2.26256 12.7626C1.93437 13.0907 1.75 13.5359 1.75 14V18.375C1.74976 19.0913 1.9254 19.7967 2.26148 20.4292C2.59756 21.0618 3.08381 21.6021 3.67752 22.0028C4.27124 22.4035 4.95426 22.6523 5.6666 22.7274C6.37894 22.8024 7.09881 22.7014 7.763 22.4332C7.26039 21.4469 6.9989 20.3553 7 19.2482V14ZM21 14V19.25C21 20.3962 20.7253 21.4777 20.237 22.4332C20.9012 22.7014 21.6211 22.8024 22.3334 22.7274C23.0457 22.6523 23.7288 22.4035 24.3225 22.0028C24.9162 21.6021 25.4024 21.0618 25.7385 20.4292C26.0746 19.7967 26.2502 19.0913 26.25 18.375V14C26.25 13.5359 26.0656 13.0907 25.7374 12.7626C25.4092 12.4344 24.9641 12.25 24.5 12.25H20.531C20.8285 12.7645 21 13.3612 21 14Z" fill="#1A1A1A"/>
</svg>
