<svg width="34" height="34" viewBox="0 0 34 34" fill="none" xmlns="http://www.w3.org/2000/svg">
<rect width="34" height="34" rx="2" fill="#FF0000"/>
<path d="M14.6 20.1429L20.828 16.5L14.6 12.8571V20.1429ZM28.472 10.635C28.628 11.2057 28.736 11.9707 28.808 12.9421C28.892 13.9136 28.928 14.7514 28.928 15.48L29 16.5C29 19.1593 28.808 21.1143 28.472 22.365C28.172 23.4579 27.476 24.1621 26.396 24.4657C25.832 24.6236 24.8 24.7329 23.216 24.8057C21.656 24.8907 20.228 24.9271 18.908 24.9271L17 25C11.972 25 8.84 24.8057 7.604 24.4657C6.524 24.1621 5.828 23.4579 5.528 22.365C5.372 21.7943 5.264 21.0293 5.192 20.0579C5.108 19.0864 5.072 18.2486 5.072 17.52L5 16.5C5 13.8407 5.192 11.8857 5.528 10.635C5.828 9.54214 6.524 8.83786 7.604 8.53429C8.168 8.37643 9.2 8.26714 10.784 8.19429C12.344 8.10929 13.772 8.07286 15.092 8.07286L17 8C22.028 8 25.16 8.19429 26.396 8.53429C27.476 8.83786 28.172 9.54214 28.472 10.635Z" fill="white"/>
</svg>
